<svg width="149" height="29" viewBox="0 0 149 29" fill="none" xmlns="http://www.w3.org/2000/svg">
<path d="M13.8317 7.38925H9.02388L13.2502 11.6137H13.8317C14.8451 11.6137 15.6695 12.4374 15.6695 13.4502C15.6695 14.4632 14.8451 15.2873 13.8317 15.2873H13.4864L16.8867 18.6857C18.6865 17.6346 19.8958 15.6842 19.8958 13.4502C19.8958 10.1027 17.1808 7.38925 13.8317 7.38925Z" fill="#3166E8"/>
<path d="M5.08831 20.1716L0.861328 15.9465L0.861328 23.5L5.08831 23.5V20.1716Z" fill="#3166E8"/>
<path d="M19.8958 23.4656L7.96952 11.6137H11.5548L7.32852 7.38926L0.861328 7.38892V14.2518L5.08831 18.4769V14.8337L13.8073 23.5H19.8958V23.4656Z" fill="#3166E8"/>
<path fill-rule="evenodd" clip-rule="evenodd" d="M16.5555 5.56758L16.5742 6.64835L15.4927 6.64235L15.4746 5.56094L16.5555 5.56758ZM12.5325 4.66875L12.547 5.48873L11.7262 5.48403L11.7124 4.6634L12.5325 4.66875ZM14.4397 3.89654L14.4575 4.92151L13.4317 4.91579L13.4146 3.89017L14.4397 3.89654ZM11.4587 2.89193L11.4723 3.65613L10.7074 3.6517L10.6951 2.88751L11.4587 2.89193ZM9.62391 2.39636L9.62967 2.71359L9.3124 2.71137L9.3073 2.3948L9.62391 2.39636ZM10.1566 4.13353L10.1647 4.59866L9.69891 4.59636L9.69075 4.12993L10.1566 4.13353ZM10.3225 6.25873L10.3343 6.94832L9.6446 6.94426L9.63348 6.25402L10.3225 6.25873ZM12.0401 6.36128L12.0521 7.1073L11.3066 7.10297L11.294 6.35759L12.0401 6.36128ZM13.1296 7.98898L13.1528 9.34999L11.7916 9.34196L11.7691 7.9816L13.1296 7.98898ZM14.2403 5.89928L14.2596 7.05465L13.1041 7.04828L13.0848 5.89292L14.2403 5.89928ZM14.7718 7.56119L14.788 8.52973L13.8194 8.52429L13.8025 7.5551L14.7718 7.56119Z" fill="#3166E8"/>
<path d="M28.0948 23.7281C27.1217 23.7281 26.2474 23.5684 25.4719 23.2491C24.6965 22.9146 24.035 22.4585 23.4877 21.8807C22.9555 21.3029 22.545 20.6415 22.2561 19.8964C21.9672 19.1514 21.8227 18.3683 21.8227 17.5472C21.8227 16.711 21.9672 15.9203 22.2561 15.1753C22.545 14.4302 22.9555 13.7688 23.4877 13.191C24.035 12.6132 24.6965 12.1647 25.4719 11.8454C26.2474 11.5109 27.1217 11.3436 28.0948 11.3436C29.0679 11.3436 29.9346 11.5109 30.6948 11.8454C31.4703 12.1647 32.1317 12.6132 32.6791 13.191C33.2265 13.7688 33.637 14.4302 33.9107 15.1753C34.1996 15.9203 34.344 16.711 34.344 17.5472C34.344 18.3683 34.1996 19.1514 33.9107 19.8964C33.637 20.6415 33.2265 21.3029 32.6791 21.8807C32.1469 22.4585 31.4931 22.9146 30.7176 23.2491C29.9422 23.5684 29.0679 23.7281 28.0948 23.7281ZM24.9701 17.5472C24.9701 18.2467 25.107 18.8701 25.3807 19.4175C25.6544 19.9496 26.0269 20.3678 26.4983 20.6719C26.9696 20.976 27.5018 21.128 28.0948 21.128C28.6726 21.128 29.1971 20.976 29.6685 20.6719C30.1398 20.3526 30.5124 19.9268 30.7861 19.3947C31.075 18.8473 31.2194 18.2239 31.2194 17.5244C31.2194 16.8402 31.075 16.2244 30.7861 15.677C30.5124 15.1297 30.1398 14.7039 29.6685 14.3998C29.1971 14.0957 28.6726 13.9437 28.0948 13.9437C27.5018 13.9437 26.9696 14.1033 26.4983 14.4226C26.0269 14.7267 25.6544 15.1525 25.3807 15.6998C25.107 16.232 24.9701 16.8478 24.9701 17.5472ZM35.5174 19.9648C35.5174 19.1894 35.7302 18.5128 36.156 17.935C36.5969 17.342 37.2051 16.8858 37.9806 16.5665C38.756 16.2472 39.6455 16.0876 40.6491 16.0876C41.1508 16.0876 41.6602 16.1256 42.1772 16.2016C42.6941 16.2776 43.1427 16.3993 43.5228 16.5665V15.9279C43.5228 15.1677 43.2947 14.5823 42.8386 14.1717C42.3976 13.7612 41.7362 13.5559 40.8543 13.5559C40.2005 13.5559 39.5771 13.67 38.9841 13.898C38.3911 14.1261 37.7677 14.4606 37.1139 14.9016L36.1332 12.8945C36.9238 12.3775 37.7297 11.9898 38.5508 11.7313C39.387 11.4728 40.2613 11.3436 41.1736 11.3436C42.8766 11.3436 44.1994 11.7693 45.1421 12.6208C46.1 13.4723 46.579 14.6887 46.579 16.27V20.0789C46.579 20.3982 46.6322 20.6263 46.7387 20.7631C46.8603 20.8999 47.0504 20.9836 47.3088 21.014V23.5C47.0352 23.5456 46.7843 23.5836 46.5562 23.614C46.3433 23.6444 46.1609 23.6597 46.0088 23.6597C45.4006 23.6597 44.9369 23.5228 44.6176 23.2491C44.3135 22.9754 44.1234 22.6409 44.0474 22.2456L43.9789 21.6298C43.462 22.2988 42.8158 22.8158 42.0403 23.1807C41.2649 23.5456 40.4742 23.7281 39.6683 23.7281C38.8777 23.7281 38.163 23.5684 37.5244 23.2491C36.901 22.9146 36.4069 22.4661 36.0419 21.9035C35.6922 21.3257 35.5174 20.6795 35.5174 19.9648ZM42.9526 20.5806C43.1199 20.3982 43.2567 20.2157 43.3631 20.0333C43.4696 19.8508 43.5228 19.6835 43.5228 19.5315V18.3227C43.1579 18.1706 42.7625 18.0566 42.3368 17.9806C41.9111 17.8894 41.5081 17.8437 41.128 17.8437C40.3373 17.8437 39.6835 18.0186 39.1666 18.3683C38.6648 18.7028 38.4139 19.1514 38.4139 19.714C38.4139 20.0181 38.4975 20.307 38.6648 20.5806C38.8321 20.8543 39.0753 21.0748 39.3946 21.2421C39.7139 21.4093 40.0941 21.4929 40.535 21.4929C40.9912 21.4929 41.4397 21.4093 41.8807 21.2421C42.3216 21.0596 42.6789 20.8391 42.9526 20.5806ZM48.6367 17.5244C48.6367 16.3689 48.8647 15.3273 49.3209 14.3998C49.777 13.4571 50.408 12.7121 51.2139 12.1647C52.0198 11.6173 52.9397 11.3436 53.9736 11.3436C54.8555 11.3436 55.6462 11.5641 56.3456 12.005C57.0602 12.4308 57.6152 12.9781 58.0105 13.6472V6.85053H61.0667V20.0789C61.0667 20.3982 61.12 20.6263 61.2264 20.7631C61.3328 20.8999 61.5153 20.9836 61.7738 21.014V23.5C61.2416 23.6064 60.8083 23.6597 60.4738 23.6597C59.9264 23.6597 59.4702 23.5228 59.1053 23.2491C58.7556 22.9754 58.5579 22.6181 58.5123 22.1772L58.4667 21.4245C58.0257 22.1696 57.4251 22.7398 56.6649 23.1351C55.9199 23.5304 55.1368 23.7281 54.3157 23.7281C53.4947 23.7281 52.7344 23.5684 52.035 23.2491C51.3508 22.9298 50.7502 22.4889 50.2332 21.9263C49.7314 21.3637 49.3361 20.7099 49.0472 19.9648C48.7735 19.2046 48.6367 18.3911 48.6367 17.5244ZM58.0105 19.121V16.27C57.8585 15.8291 57.6152 15.4338 57.2807 15.084C56.9462 14.7343 56.5737 14.4606 56.1631 14.263C55.7526 14.0501 55.3421 13.9437 54.9315 13.9437C54.4602 13.9437 54.0344 14.0425 53.6543 14.2402C53.2742 14.4378 52.9397 14.7039 52.6508 15.0384C52.3771 15.3729 52.1642 15.7607 52.0122 16.2016C51.8753 16.6425 51.8069 17.1063 51.8069 17.5929C51.8069 18.0794 51.8829 18.5432 52.035 18.9841C52.2022 19.4099 52.4379 19.7824 52.742 20.1017C53.0461 20.421 53.3958 20.6719 53.7912 20.8543C54.2017 21.0368 54.6426 21.128 55.114 21.128C55.4029 21.128 55.6918 21.0824 55.9807 20.9912C56.2848 20.8847 56.5661 20.7479 56.8246 20.5806C57.0982 20.3982 57.3339 20.1853 57.5316 19.942C57.7445 19.6835 57.9041 19.4099 58.0105 19.121ZM63.4736 23.5C63.4736 22.8158 63.5269 22.2 63.6333 21.6526C63.7397 21.1052 63.9222 20.5958 64.1807 20.1245C64.4544 19.6531 64.8193 19.2122 65.2754 18.8017C65.7468 18.3759 66.3398 17.9654 67.0544 17.5701C67.6778 17.2355 68.2252 16.9466 68.6966 16.7034C69.1679 16.4449 69.5632 16.2092 69.8826 15.9963C70.2171 15.7835 70.4679 15.5706 70.6352 15.3577C70.8025 15.1297 70.8861 14.8712 70.8861 14.5823C70.8861 14.2782 70.8025 14.0045 70.6352 13.7612C70.4679 13.5027 70.2323 13.2974 69.9282 13.1454C69.6241 12.9933 69.2439 12.9173 68.7878 12.9173C68.4229 12.9173 68.0808 12.9629 67.7615 13.0542C67.4574 13.1454 67.1685 13.2746 66.8948 13.4419C66.6363 13.6092 66.393 13.7992 66.1649 14.0121C65.9369 14.2097 65.7316 14.4226 65.5491 14.6507L63.6105 12.4156C63.8234 12.2027 64.1047 11.9746 64.4544 11.7313C64.8193 11.4728 65.245 11.2372 65.7316 11.0243C66.2334 10.7962 66.7807 10.6138 67.3737 10.4769C67.9819 10.3249 68.6281 10.2488 69.3124 10.2488C70.3463 10.2488 71.2282 10.4161 71.958 10.7506C72.6879 11.0699 73.2429 11.5185 73.623 12.0963C74.0183 12.674 74.216 13.3507 74.216 14.1261C74.216 14.6583 74.1171 15.1297 73.9195 15.5402C73.7218 15.9507 73.4709 16.3156 73.1668 16.6349C72.8627 16.939 72.5282 17.2127 72.1633 17.456C71.8136 17.6993 71.4715 17.9122 71.137 18.0946C70.6656 18.3379 70.2399 18.566 69.8597 18.7788C69.4796 18.9765 69.1451 19.1818 68.8562 19.3947C68.5673 19.5923 68.3088 19.7976 68.0808 20.0105C67.8679 20.2233 67.6778 20.4666 67.5106 20.7403H74.4669V23.5H63.4736ZM76.1193 15.2893C76.1193 14.301 76.2942 13.3355 76.6439 12.3928C77.0088 11.4348 77.5334 10.5682 78.2176 9.7927C78.9018 9.00204 79.7381 8.37863 80.7264 7.92248C81.7148 7.45113 82.8399 7.21545 84.102 7.21545C85.592 7.21545 86.8769 7.54236 87.9564 8.19617C89.0512 8.84999 89.8646 9.70147 90.3968 10.7506L87.9792 12.4156C87.7055 11.8074 87.3482 11.3284 86.9073 10.9787C86.4663 10.6138 85.995 10.3629 85.4932 10.226C84.9914 10.074 84.4973 9.99796 84.0107 9.99796C83.2201 9.99796 82.5282 10.1576 81.9352 10.4769C81.3575 10.7962 80.8709 11.2144 80.4756 11.7313C80.0802 12.2483 79.7837 12.8261 79.5861 13.4647C79.4036 14.1033 79.3124 14.7419 79.3124 15.3805C79.3124 16.0952 79.4264 16.787 79.6545 17.456C79.8826 18.1098 80.2019 18.6952 80.6124 19.2122C81.0381 19.714 81.5399 20.1169 82.1177 20.421C82.7107 20.7099 83.3569 20.8543 84.0563 20.8543C84.5581 20.8543 85.0675 20.7707 85.5844 20.6034C86.1014 20.4362 86.5804 20.1701 87.0213 19.8052C87.4623 19.4403 87.8044 18.9689 88.0477 18.3911L90.6249 19.8736C90.3056 20.6795 89.781 21.3637 89.0512 21.9263C88.3365 22.4889 87.5307 22.9146 86.6336 23.2035C85.7365 23.4924 84.847 23.6368 83.9651 23.6368C82.8095 23.6368 81.7528 23.4012 80.7949 22.9298C79.837 22.4433 79.0083 21.8046 78.3089 21.014C77.6246 20.2081 77.0848 19.311 76.6895 18.3227C76.3094 17.3192 76.1193 16.308 76.1193 15.2893ZM99.4867 14.1945C98.5592 14.1945 97.7305 14.377 97.0007 14.7419C96.2708 15.0916 95.7463 15.601 95.4269 16.27V23.5H92.3707V11.5489H95.1761V14.1033C95.6018 13.2822 96.1416 12.636 96.7954 12.1647C97.4492 11.6933 98.141 11.4348 98.8709 11.3892C99.0381 11.3892 99.1674 11.3892 99.2586 11.3892C99.3498 11.3892 99.4259 11.3968 99.4867 11.412V14.1945ZM101.373 25.8264C101.647 25.8872 101.898 25.9404 102.126 25.986C102.369 26.0316 102.574 26.0544 102.742 26.0544C103.031 26.0544 103.266 25.9784 103.449 25.8264C103.646 25.6895 103.836 25.431 104.019 25.0509C104.201 24.686 104.391 24.169 104.589 23.5L99.868 11.5489H103.038L106.254 20.3754L109.082 11.5489H112.002L106.984 25.872C106.801 26.4042 106.52 26.8831 106.14 27.3089C105.775 27.7498 105.311 28.0919 104.749 28.3352C104.201 28.5937 103.586 28.7229 102.901 28.7229C102.658 28.7229 102.415 28.7001 102.172 28.6545C101.928 28.6241 101.662 28.5633 101.373 28.472V25.8264ZM120.755 23.7281C119.828 23.7281 119.007 23.5228 118.292 23.1123C117.593 22.6865 117.045 22.1163 116.65 21.4017V28.358H113.594V11.5489H116.262V13.6015C116.718 12.9021 117.296 12.3547 117.995 11.9594C118.695 11.5489 119.493 11.3436 120.39 11.3436C121.196 11.3436 121.934 11.5033 122.603 11.8226C123.287 12.1419 123.88 12.5904 124.382 13.1682C124.883 13.7308 125.271 14.3846 125.545 15.1297C125.834 15.8595 125.978 16.6501 125.978 17.5016C125.978 18.6572 125.75 19.7064 125.294 20.6491C124.853 21.5918 124.237 22.3444 123.446 22.907C122.671 23.4544 121.774 23.7281 120.755 23.7281ZM119.729 21.128C120.2 21.128 120.626 21.0292 121.006 20.8315C121.386 20.6339 121.713 20.3678 121.987 20.0333C122.276 19.6835 122.489 19.2958 122.625 18.8701C122.777 18.4291 122.853 17.973 122.853 17.5016C122.853 16.9999 122.77 16.5361 122.603 16.1104C122.451 15.6846 122.222 15.3121 121.918 14.9928C121.614 14.6583 121.257 14.3998 120.846 14.2174C120.451 14.0349 120.018 13.9437 119.546 13.9437C119.258 13.9437 118.961 13.9969 118.657 14.1033C118.368 14.1945 118.087 14.3314 117.813 14.5138C117.539 14.6963 117.296 14.9092 117.083 15.1525C116.886 15.3957 116.741 15.6618 116.65 15.9507V18.756C116.832 19.197 117.076 19.5999 117.38 19.9648C117.699 20.3298 118.064 20.6187 118.474 20.8315C118.885 21.0292 119.303 21.128 119.729 21.128ZM134.986 22.8842C134.728 22.9906 134.416 23.1123 134.051 23.2491C133.686 23.386 133.291 23.4924 132.865 23.5684C132.454 23.6597 132.036 23.7053 131.61 23.7053C131.048 23.7053 130.531 23.6064 130.06 23.4088C129.588 23.2111 129.208 22.8994 128.919 22.4737C128.646 22.0327 128.509 21.4625 128.509 20.7631V13.898H126.935V11.5489H128.509V7.6716H131.565V11.5489H134.074V13.898H131.565V19.7368C131.58 20.1473 131.694 20.4438 131.907 20.6263C132.12 20.8087 132.386 20.8999 132.705 20.8999C133.025 20.8999 133.336 20.8467 133.64 20.7403C133.944 20.6339 134.188 20.5426 134.37 20.4666L134.986 22.8842ZM141.895 23.7281C140.922 23.7281 140.048 23.5684 139.272 23.2491C138.497 22.9146 137.835 22.4585 137.288 21.8807C136.756 21.3029 136.345 20.6415 136.056 19.8964C135.767 19.1514 135.623 18.3683 135.623 17.5472C135.623 16.711 135.767 15.9203 136.056 15.1753C136.345 14.4302 136.756 13.7688 137.288 13.191C137.835 12.6132 138.497 12.1647 139.272 11.8454C140.048 11.5109 140.922 11.3436 141.895 11.3436C142.868 11.3436 143.735 11.5109 144.495 11.8454C145.271 12.1647 145.932 12.6132 146.479 13.191C147.027 13.7688 147.437 14.4302 147.711 15.1753C148 15.9203 148.144 16.711 148.144 17.5472C148.144 18.3683 148 19.1514 147.711 19.8964C147.437 20.6415 147.027 21.3029 146.479 21.8807C145.947 22.4585 145.293 22.9146 144.518 23.2491C143.742 23.5684 142.868 23.7281 141.895 23.7281ZM138.77 17.5472C138.77 18.2467 138.907 18.8701 139.181 19.4175C139.455 19.9496 139.827 20.3678 140.299 20.6719C140.77 20.976 141.302 21.128 141.895 21.128C142.473 21.128 142.997 20.976 143.469 20.6719C143.94 20.3526 144.313 19.9268 144.586 19.3947C144.875 18.8473 145.02 18.2239 145.02 17.5244C145.02 16.8402 144.875 16.2244 144.586 15.677C144.313 15.1297 143.94 14.7039 143.469 14.3998C142.997 14.0957 142.473 13.9437 141.895 13.9437C141.302 13.9437 140.77 14.1033 140.299 14.4226C139.827 14.7267 139.455 15.1525 139.181 15.6998C138.907 16.232 138.77 16.8478 138.77 17.5472Z" fill="white"/>
</svg>
